<?xml version="1.0" encoding="UTF-8" standalone="no"?>
<!-- Created with Inkscape (http://www.inkscape.org/) -->

<svg
   width="1024mm"
   height="1024mm"
   viewBox="0 0 1024 1024"
   version="1.1"
   id="svg1"
   sodipodi:docname="local-github-actions.svg"
   inkscape:version="1.4.2 (ebf0e940d0, 2025-05-08)"
   inkscape:export-filename="local-github-actions.png"
   inkscape:export-xdpi="25.4"
   inkscape:export-ydpi="25.4"
   xmlns:inkscape="http://www.inkscape.org/namespaces/inkscape"
   xmlns:sodipodi="http://sodipodi.sourceforge.net/DTD/sodipodi-0.dtd"
   xmlns="http://www.w3.org/2000/svg"
   xmlns:svg="http://www.w3.org/2000/svg">
  <sodipodi:namedview
     id="namedview1"
     pagecolor="#ffffff"
     bordercolor="#000000"
     borderopacity="0.25"
     inkscape:showpageshadow="2"
     inkscape:pageopacity="0.0"
     inkscape:pagecheckerboard="true"
     inkscape:deskcolor="#d1d1d1"
     inkscape:document-units="px"
     inkscape:zoom="0.21138827"
     inkscape:cx="-4652.576"
     inkscape:cy="1993.9611"
     inkscape:window-width="5120"
     inkscape:window-height="1366"
     inkscape:window-x="0"
     inkscape:window-y="1484"
     inkscape:window-maximized="1"
     inkscape:current-layer="layer1" />
  <defs
     id="defs1" />
  <g
     inkscape:label="Layer 1"
     inkscape:groupmode="layer"
     id="layer1">
    <g
       id="g58"
       style="fill:#ffffff;fill-opacity:1;stroke:#ffffff;stroke-width:47.625;stroke-dasharray:none;stroke-opacity:1"
       transform="matrix(0.98,0,0,0.98,10.376298,10.237025)">
      <path
         id="path42"
         style="baseline-shift:baseline;display:inline;overflow:visible;fill:#ffffff;fill-opacity:1;stroke:#ffffff;stroke-width:47.625;stroke-dasharray:none;stroke-opacity:1;enable-background:accumulate;stop-color:#000000"
         d="M 365.71599,18.362721 C 355.36605,18.25042 356.17858,18.675649 345.65196,19.631378 175.65857,35.065356 50.16997,185.61334 65.603951,355.60672 80.250571,516.92805 230.73999,637.28375 389.89306,636.04351 l -2.42401,-19.29253 C 233.28567,624.26571 99.456871,509.00636 85.366571,353.81252 70.902291,194.49959 188.13325,53.858272 347.44617,39.393995 502.63221,25.3044 614.70344,124.50639 652.92654,262.49023 l 23.61439,-7.27984 C 663.63445,124.91691 532.9401,20.177173 365.71599,18.362721 Z"
         sodipodi:nodetypes="sssccssccs" />
      <path
         id="path43"
         style="baseline-shift:baseline;display:inline;overflow:visible;fill:#ffffff;fill-opacity:1;stroke:#ffffff;stroke-width:47.625;stroke-dasharray:none;stroke-opacity:1;enable-background:accumulate;stop-color:#000000"
         d="m 217.6479,120.84845 c -3.5356,0.0569 -6.9995,0.63935 -10.89753,3.68505 -5.19738,4.06094 -5.959,8.43158 -7.03161,13.16612 -1.07261,4.73455 -1.67122,10.24298 -2.02831,16.74575 -0.71416,13.00553 -0.35779,29.89783 0.78859,49.62023 2.29275,39.4448 7.80166,90.05065 14.88953,140.47048 7.08787,50.41985 15.7443,100.58136 24.41556,139.1295 4.33564,19.27407 8.65106,35.61086 12.92324,47.91541 2.13609,6.15228 4.23066,11.2812 6.56704,15.53652 2.33638,4.25533 4.27348,8.24607 10.38904,10.71666 6.11556,2.4706 10.28037,0.94538 14.91691,-0.49299 4.63655,-1.43837 9.70626,-3.67451 15.51637,-6.61665 11.6202,-5.88428 26.07188,-14.63903 42.57879,-25.49302 33.01383,-21.70798 74.08503,-51.77955 114.20595,-83.12774 40.12093,-31.34821 79.23424,-63.92766 108.28227,-90.71126 14.52401,-13.3918 26.51356,-25.29665 35.03352,-35.14875 2.37141,-2.74219 4.47472,-5.31497 6.30815,-7.77317 l -21.32997,-5.19297 c -7.64993,8.84401 -19.26368,20.43415 -33.46307,33.52664 -28.41446,26.19942 -67.25423,58.56986 -107.04772,89.66222 -39.79349,31.09237 -80.59806,60.95014 -112.89182,82.18465 -16.14688,10.61726 -30.20705,19.08731 -40.64042,24.3706 -5.21668,2.64164 -9.56017,4.47524 -12.43179,5.36609 -0.62534,0.19399 -0.79896,0.13432 -1.26039,0.19481 -0.28982,-0.36394 -0.45659,-0.44131 -0.77153,-1.01492 -1.44702,-2.63551 -3.29674,-6.97145 -5.21466,-12.49536 -3.83585,-11.04783 -8.06878,-26.90787 -12.30985,-45.76155 -8.48214,-37.70736 -17.09512,-87.53002 -24.12514,-137.53837 -7.03003,-50.00836 -12.48607,-100.27475 -14.72882,-138.85922 -1.12138,-19.29224 -1.42722,-35.70389 -0.78599,-47.38109 0.32061,-5.8386 0.90406,-10.51544 1.56837,-13.44775 0.14466,-0.63851 0.28368,-0.75923 0.46199,-1.18908 0.4605,-0.0692 0.61079,-0.1753 1.26607,-0.16123 3.00593,0.0646 7.6848,0.63017 13.42761,1.73116 11.48562,2.20197 27.3365,6.467 45.7848,12.22096 36.89659,11.50794 84.35245,28.95912 131.17597,47.87511 9.2799,3.74894 18.53748,7.55665 27.68616,11.38742 l 6.22801,-17.58582 c -8.82512,-3.68859 -17.53947,-8.5878 -26.48207,-12.20047 -47.2088,-19.07165 -94.98061,-36.65525 -132.69991,-48.41978 -18.85964,-5.88227 -35.16408,-10.31421 -47.95624,-12.76667 -6.39608,-1.22623 -11.88562,-1.9762 -16.73903,-2.08049 -1.21336,-0.0261 -2.39954,-0.066 -3.57807,-0.047 z"
         sodipodi:nodetypes="ssssssssssssssssccssssscssssssscssssccsssss" />
      <path
         style="baseline-shift:baseline;display:inline;overflow:visible;fill:#ffffff;fill-opacity:1;stroke:#ffffff;stroke-width:47.625;stroke-dasharray:none;stroke-opacity:1;enable-background:accumulate;stop-color:#000000"
         d="m 539.36415,794.58196 c -58.08566,0 -105.38672,47.2991 -105.38672,105.38476 0,58.08567 47.30106,105.38678 105.38672,105.38678 58.08566,0 105.38672,-47.30111 105.38672,-105.38678 0,-58.08566 -47.30106,-105.38476 -105.38672,-105.38476 z m 0,19.84375 c 47.36128,0 85.54297,38.17974 85.54297,85.54101 0,47.36128 -38.18169,85.54297 -85.54297,85.54297 -47.36128,0 -85.54297,-38.18169 -85.54297,-85.54297 0,-47.36127 38.18169,-85.54101 85.54297,-85.54101 z"
         id="path44" />
      <path
         style="baseline-shift:baseline;display:inline;overflow:visible;fill:#ffffff;fill-opacity:1;stroke:#ffffff;stroke-width:47.625;stroke-dasharray:none;stroke-opacity:1;enable-background:accumulate;stop-color:#000000"
         d="m 867.92079,794.58196 c -58.08566,0 -105.38672,47.2991 -105.38672,105.38476 0,58.08567 47.30106,105.38678 105.38672,105.38678 58.08566,0 105.38479,-47.30111 105.38479,-105.38678 0,-58.08566 -47.29913,-105.38476 -105.38479,-105.38476 z m 0,19.84375 c 47.36128,0 85.54102,38.17974 85.54102,85.54101 0,47.36128 -38.17974,85.54297 -85.54102,85.54297 -47.36127,0 -85.54297,-38.18169 -85.54297,-85.54297 0,-47.36127 38.1817,-85.54101 85.54297,-85.54101 z"
         id="path45" />
      <path
         style="baseline-shift:baseline;display:inline;overflow:visible;fill:#ffffff;fill-opacity:1;stroke:#ffffff;stroke-width:47.625;stroke-linecap:round;stroke-linejoin:round;stroke-dasharray:none;stroke-opacity:1;enable-background:accumulate;stop-color:#000000"
         d="m 533.33876,427.44524 c -11.59687,-0.86623 -23.43772,3.81774 -31.14648,13.54492 L 419.28212,545.6093 c -5.95566,7.51502 -8.68486,17.09755 -7.58203,26.62305 l 12.43945,107.45703 c 1.10285,9.52525 5.94811,18.23203 13.46289,24.1875 l 63.47852,50.30469 c 15.56344,12.33397 38.47655,9.68258 50.81055,-5.88086 L 682.30946,583.7343 c 12.33414,-15.56363 9.68245,-38.47861 -5.88086,-50.8125 L 553.00282,435.10735 c -5.83632,-4.62527 -12.70594,-7.14237 -19.66406,-7.66211 z m -1.56641,19.67383 c 3.12361,0.24799 6.22161,1.41343 8.90625,3.54101 l 123.42383,97.81446 c 7.1586,5.67317 8.32963,15.77473 2.65625,22.93359 L 536.33876,735.97454 c -5.67304,7.15843 -15.77515,8.32734 -22.93359,2.65429 L 449.9286,688.32414 c -3.39585,-2.69121 -5.57965,-6.61268 -6.07812,-10.91796 L 431.41103,569.9511 c -0.49843,-4.30506 0.73208,-8.62106 3.42382,-12.01758 l 82.91016,-104.61914 c 3.54594,-4.47439 8.82133,-6.60863 14.02734,-6.19531 z"
         id="path46" />
      <path
         style="baseline-shift:baseline;display:inline;overflow:visible;fill:#ffffff;fill-opacity:1;stroke:#ffffff;stroke-width:47.625;stroke-linecap:round;stroke-linejoin:round;stroke-dasharray:none;stroke-opacity:1;enable-background:accumulate;stop-color:#000000"
         d="m 429.45009,558.58782 a 9.9218998,9.9218998 0 0 0 -6.63477,3.69336 9.9218998,9.9218998 0 0 0 1.61328,13.9375 l 53.93555,42.74414 -46.82031,59.08007 a 9.9218998,9.9218998 0 0 0 1.61328,13.9375 9.9218998,9.9218998 0 0 0 13.93945,-1.61328 L 500.079,623.51164 a 9.922892,9.922892 0 0 0 -1.61329,-13.9375 l -61.71289,-48.90625 a 9.9218998,9.9218998 0 0 0 -7.30273,-2.08007 z"
         id="path47" />
      <path
         style="baseline-shift:baseline;display:inline;overflow:visible;fill:#ffffff;fill-opacity:1;stroke:#ffffff;stroke-width:47.625;stroke-linecap:round;stroke-linejoin:round;stroke-dasharray:none;stroke-opacity:1;enable-background:accumulate;stop-color:#000000"
         d="m 757.16103,334.50774 c -16.74358,0.9823 -31.22136,13.68176 -33.73438,30.875 l -30.36719,207.77148 c -2.87203,19.64965 10.90741,38.14754 30.55664,41.01953 l 155.82813,22.77539 c 19.64951,2.87204 38.14955,-10.90712 41.02148,-30.55664 L 939.7704,474.30657 c 1.38676,-9.48797 -1.05437,-19.14807 -6.7832,-26.83789 l -64.62305,-86.75 c -5.72862,-7.68967 -14.28574,-12.79295 -23.77344,-14.17969 l -80.14257,-11.71485 c -2.45618,-0.359 -4.89517,-0.45673 -7.28711,-0.3164 z m 1.08007,19.79492 c 1.09055,-0.0574 2.20622,-0.009 3.33594,0.15625 l 80.14258,11.71484 c 4.28741,0.62666 8.14125,2.92482 10.73047,6.40039 l 64.62305,86.74805 c 2.5891,3.47536 3.68927,7.82694 3.0625,12.11524 L 900.829,603.52141 c -1.32105,9.0385 -9.47511,15.11408 -18.51368,13.79297 L 726.4872,594.53899 c -9.03798,-1.32102 -15.11403,-9.47731 -13.79297,-18.51563 l 30.36914,-207.77148 c 1.15587,-7.90809 7.54392,-13.54765 15.17773,-13.94922 z"
         id="path48" />
      <path
         style="baseline-shift:baseline;display:inline;overflow:visible;fill:#ffffff;fill-opacity:1;stroke:#ffffff;stroke-width:47.625;stroke-linecap:round;stroke-linejoin:round;stroke-dasharray:none;stroke-opacity:1;enable-background:accumulate;stop-color:#000000"
         d="m 854.39735,354.60344 a 9.9218998,9.9218998 0 0 0 -11.25195,8.38281 l -12.33789,84.40625 a 9.922892,9.922892 0 0 0 8.38281,11.25391 l 77.91407,11.38672 a 9.9218998,9.9218998 0 0 0 11.2539,-8.38281 9.9218998,9.9218998 0 0 0 -8.38281,-11.25196 l -68.09766,-9.95312 10.90235,-74.58985 a 9.9218998,9.9218998 0 0 0 -8.38282,-11.25195 z"
         id="path49" />
      <g
         id="g51"
         style="fill:#ffffff;fill-opacity:1;stroke:#ffffff;stroke-width:47.625;stroke-dasharray:none;stroke-opacity:1"
         transform="translate(-38.399519,-10.472727)">
        <path
           style="baseline-shift:baseline;display:inline;overflow:visible;fill:#ffffff;fill-opacity:1;stroke:#ffffff;stroke-width:47.625;stroke-linecap:round;stroke-linejoin:round;stroke-dasharray:none;stroke-opacity:1;enable-background:accumulate;stop-color:#000000;stop-opacity:1"
           d="M 675.46727,912.41357 H 805.364 m 0,0 -48.29491,46.08043 m 48.29491,-46.08043 -47.29571,-50.334"
           id="path50" />
        <path
           style="baseline-shift:baseline;display:inline;overflow:visible;fill:#ffffff;fill-opacity:1;stroke:#ffffff;stroke-width:47.625;stroke-linecap:round;stroke-linejoin:round;stroke-dasharray:none;stroke-opacity:1;enable-background:accumulate;stop-color:#000000;stop-opacity:1"
           d="m 758.37695,852.16211 a 9.921875,9.921875 0 0 0 -7.10351,2.6875 9.921875,9.921875 0 0 0 -0.43555,14.02344 l 31.58984,33.61914 H 675.4668 a 9.921875,9.921875 0 0 0 -9.92188,9.92187 9.921875,9.921875 0 0 0 9.92188,9.92188 h 105.12695 l -30.37305,28.98047 a 9.921875,9.921875 0 0 0 -0.33008,14.02734 9.921875,9.921875 0 0 0 14.02735,0.32812 l 48.24023,-46.02734 0.0547,-0.0527 a 9.921875,9.921875 0 0 0 0.0508,-0.11524 9.921875,9.921875 0 0 0 1.50391,-3.39844 9.921875,9.921875 0 0 0 1.5,-3.39453 9.921875,9.921875 0 0 0 -0.0293,-0.15429 9.921875,9.921875 0 0 0 0.0469,-0.11524 9.921875,9.921875 0 0 0 -1.38672,-3.34765 9.921875,9.921875 0 0 0 -0.004,-0.0117 9.921875,9.921875 0 0 0 -0.002,-0.004 9.921875,9.921875 0 0 0 -1.29883,-3.43164 l -0.0508,-0.0527 v -0.002 a 9.921875,9.921875 0 0 0 -0.002,0 l -47.24219,-50.27929 a 9.921875,9.921875 0 0 0 -6.92188,-3.12305 z"
           id="path51" />
      </g>
      <g
         id="g53"
         style="fill:#ffffff;fill-opacity:1;stroke:#ffffff;stroke-width:47.625;stroke-dasharray:none;stroke-opacity:1"
         transform="translate(-38.399519,-10.472727)">
        <path
           style="baseline-shift:baseline;display:inline;overflow:visible;fill:#ffffff;fill-opacity:1;stroke:#ffffff;stroke-width:47.625;stroke-linecap:round;stroke-linejoin:round;stroke-dasharray:none;stroke-opacity:1;enable-background:accumulate;stop-color:#000000;stop-opacity:1"
           d="m 680.59235,695.84286 h 129.89673 m 0,0 -48.29491,46.08043 m 48.29491,-46.08043 -47.29571,-50.334"
           id="path52" />
        <path
           style="baseline-shift:baseline;display:inline;overflow:visible;fill:#ffffff;fill-opacity:1;stroke:#ffffff;stroke-width:47.625;stroke-linecap:round;stroke-linejoin:round;stroke-dasharray:none;stroke-opacity:1;enable-background:accumulate;stop-color:#000000;stop-opacity:1"
           d="m 763.50195,635.5918 a 9.9218998,9.9218998 0 0 0 -7.10351,2.68554 9.9218998,9.9218998 0 0 0 -0.43555,14.02539 l 31.58984,33.61914 H 680.5918 a 9.9218998,9.9218998 0 0 0 -9.92188,9.92188 9.9218998,9.9218998 0 0 0 9.92188,9.92187 h 105.125 l -30.3711,28.97852 a 9.9218998,9.9218998 0 0 0 -0.33008,14.0293 9.9218998,9.9218998 0 0 0 14.02735,0.32812 l 48.24023,-46.02734 0.0547,-0.0527 a 9.9218998,9.9218998 0 0 0 0.0508,-0.11328 9.9218998,9.9218998 0 0 0 1.51563,-3.42773 9.9218998,9.9218998 0 0 0 0.0215,-0.0488 9.9218998,9.9218998 0 0 0 1.4668,-3.31836 9.9218998,9.9218998 0 0 0 -0.0293,-0.1543 9.9218998,9.9218998 0 0 0 0.0469,-0.11523 9.9218998,9.9218998 0 0 0 -1.39454,-3.36719 9.9218998,9.9218998 0 0 0 -1.29492,-3.42773 l -0.0527,-0.0547 -47.24414,-50.2793 a 9.9218998,9.9218998 0 0 0 -6.92188,-3.12304 z"
           id="path53" />
      </g>
      <g
         id="g55"
         style="fill:#ffffff;fill-opacity:1;stroke:#ffffff;stroke-width:47.625;stroke-dasharray:none;stroke-opacity:1"
         transform="translate(-38.399519,-10.472727)">
        <path
           style="baseline-shift:baseline;display:inline;overflow:visible;fill:#ffffff;fill-opacity:1;stroke:#ffffff;stroke-width:47.625;stroke-linecap:round;stroke-linejoin:round;stroke-dasharray:none;stroke-opacity:1;enable-background:accumulate;stop-color:#000000;stop-opacity:1"
           d="m 340.42962,912.79202 h 129.89673 m 0,0 -48.29491,46.08043 m 48.29491,-46.08043 -47.29571,-50.334"
           id="path54" />
        <path
           style="baseline-shift:baseline;display:inline;overflow:visible;fill:#ffffff;fill-opacity:1;stroke:#ffffff;stroke-width:47.625;stroke-linecap:round;stroke-linejoin:round;stroke-dasharray:none;stroke-opacity:1;enable-background:accumulate;stop-color:#000000;stop-opacity:1"
           d="m 423.33984,852.54102 a 9.9218998,9.9218998 0 0 0 -7.10351,2.68554 9.9218998,9.9218998 0 0 0 -0.43555,14.02539 l 31.58984,33.61914 H 340.42969 a 9.9218998,9.9218998 0 0 0 -9.92188,9.92188 9.9218998,9.9218998 0 0 0 9.92188,9.92187 h 105.12304 l -30.37109,28.97852 a 9.9218998,9.9218998 0 0 0 -0.32812,14.0293 9.9218998,9.9218998 0 0 0 14.02734,0.32812 l 48.24023,-46.02734 0.0547,-0.0527 a 9.9218998,9.9218998 0 0 0 0.0508,-0.11523 9.9218998,9.9218998 0 0 0 1.50391,-3.39844 9.9218998,9.9218998 0 0 0 1.5,-3.39453 9.9218998,9.9218998 0 0 0 -0.0293,-0.1543 9.9218998,9.9218998 0 0 0 0.0469,-0.11523 9.9218998,9.9218998 0 0 0 -1.39649,-3.36914 9.9218998,9.9218998 0 0 0 -1.29492,-3.42578 l -0.0527,-0.0547 -47.24219,-50.2793 a 9.9218998,9.9218998 0 0 0 -6.92188,-3.12304 z"
           id="path55" />
      </g>
      <path
         style="baseline-shift:baseline;display:inline;overflow:visible;fill:#ffffff;fill-opacity:1;stroke:#ffffff;stroke-width:47.625;stroke-dasharray:none;stroke-opacity:1;enable-background:accumulate;stop-color:#000000"
         d="m 163.50868,549.17766 v 229.29883 l 0.0293,-0.7832 c 0,0 -2.8236,33.55911 13.91992,67.33984 16.74353,33.78073 54.66819,67.53311 128.95703,67.23047 l -0.0801,-19.83789 C 237.8063,892.70488 209.25754,864.52299 195.23132,836.22454 181.2051,807.92608 183.3153,779.26164 183.3153,779.26164 l 0.0312,-0.39257 V 565.10852 Z"
         id="path56"
         sodipodi:nodetypes="cccsccscccc" />
      <path
         id="path57"
         style="baseline-shift:baseline;display:inline;overflow:visible;fill:#ffffff;fill-opacity:1;stroke:#ffffff;stroke-width:47.625;stroke-dasharray:none;stroke-opacity:1;enable-background:accumulate;stop-color:#000000"
         d="m 943.05908,611.47313 -6.99304,20.83213 c 12.52051,14.87172 17.39583,29.66913 17.39583,50.70266 0,47.36128 -38.17975,85.54258 -85.54103,85.54258 -47.36127,0 -85.54309,-38.1813 -85.54309,-85.54258 0,-14.1899 1.65733,-16.93531 7.73216,-28.69693 L 770.8136,649.1616 c -5.33017,12.59068 -8.2796,19.342 -8.2796,33.84632 0,58.08566 47.30118,105.38633 105.38684,105.38633 58.08566,0 105.38474,-47.30067 105.38474,-105.38633 0,-32.17216 -7.43001,-52.18482 -30.2465,-71.53479 z"
         sodipodi:nodetypes="ccsssccsssc" />
      <path
         style="baseline-shift:baseline;display:inline;overflow:visible;fill:#ffffff;fill-opacity:1;stroke:#ffffff;stroke-width:47.625;stroke-dasharray:none;stroke-opacity:1;enable-background:accumulate;stop-color:#000000"
         d="m 427.28275,188.24242 -17.7018,13.32391 c 0,0 66.90473,30.88315 132.4375,56.61524 32.76638,12.86604 65.08427,24.45096 89.26758,30.36132 12.09165,2.95519 21.85451,4.71934 30.45703,3.83204 4.30126,-0.44366 9.00898,-1.4815 12.85742,-5.74805 3.84844,-4.26655 4.28077,-10.91341 2.87695,-15.50977 l -18.97851,5.79688 c 0.19039,0.62338 0.0288,-2.0943 1.36718,-3.57813 1.33842,-1.48382 1.6189,-0.88467 -0.16015,-0.70117 -3.55811,0.367 -12.56254,-0.64497 -23.70899,-3.36914 C 613.70407,263.8172 581.66069,252.42923 549.2704,239.71086 484.48983,214.27413 427.28275,188.24242 427.28275,188.24242 Z"
         id="path58"
         sodipodi:nodetypes="ccssssccssssc" />
    </g>
    <g
       id="g42"
       transform="matrix(0.98,0,0,0.98,10.376298,10.237025)">
      <path
         id="path1"
         style="baseline-shift:baseline;display:inline;overflow:visible;fill:#0044aa;fill-opacity:1;stroke:#0044aa;stroke-width:13.2292;stroke-dasharray:none;stroke-opacity:1;enable-background:accumulate;stop-color:#000000"
         d="M 376.9808,18.362721 C 366.63076,18.260615 356.17858,18.675649 345.65196,19.631378 175.65857,35.065356 50.16997,185.61334 65.603951,355.60672 80.250571,516.92805 230.73999,637.28375 389.89306,636.04351 l -2.42401,-19.29253 C 233.28567,624.26571 99.456871,509.00636 85.366571,353.81252 70.902291,194.49959 188.13325,53.858272 347.44617,39.393995 502.63221,25.3044 640.98801,127.3226 661.37515,280.32619 l 16.41742,-8.53149 C 657.0633,119.2845 529.18516,19.864261 376.9808,18.362721 Z"
         sodipodi:nodetypes="sssccssccs" />
      <path
         id="path3"
         style="baseline-shift:baseline;display:inline;overflow:visible;fill:#0044aa;fill-opacity:1;stroke:#0044aa;stroke-width:13.2292;stroke-dasharray:none;stroke-opacity:1;enable-background:accumulate;stop-color:#000000"
         d="m 217.6479,120.84845 c -3.5356,0.0569 -6.9995,0.63935 -10.89753,3.68505 -5.19738,4.06094 -5.959,8.43158 -7.03161,13.16612 -1.07261,4.73455 -1.67122,10.24298 -2.02831,16.74575 -0.71416,13.00553 -0.35779,29.89783 0.78859,49.62023 2.29275,39.4448 7.80166,90.05065 14.88953,140.47048 7.08787,50.41985 15.7443,100.58136 24.41556,139.1295 4.33564,19.27407 8.65106,35.61086 12.92324,47.91541 2.13609,6.15228 4.23066,11.2812 6.56704,15.53652 2.33638,4.25533 4.27348,8.24607 10.38904,10.71666 6.11556,2.4706 10.28037,0.94538 14.91691,-0.49299 4.63655,-1.43837 9.70626,-3.67451 15.51637,-6.61665 11.6202,-5.88428 26.07188,-14.63903 42.57879,-25.49302 33.01383,-21.70798 74.08503,-51.77955 114.20595,-83.12774 40.12093,-31.34821 79.23424,-63.92766 108.28227,-90.71126 14.52401,-13.3918 26.51356,-25.29665 35.03352,-35.14875 2.37141,-2.74219 4.47472,-5.31497 6.30815,-7.77317 l -21.32997,-5.19297 c -7.64993,8.84401 -19.26368,20.43415 -33.46307,33.52664 -28.41446,26.19942 -67.25423,58.56986 -107.04772,89.66222 -39.79349,31.09237 -80.59806,60.95014 -112.89182,82.18465 -16.14688,10.61726 -30.20705,19.08731 -40.64042,24.3706 -5.21668,2.64164 -9.56017,4.47524 -12.43179,5.36609 -0.62534,0.19399 -0.79896,0.13432 -1.26039,0.19481 -0.28982,-0.36394 -0.45659,-0.44131 -0.77153,-1.01492 -1.44702,-2.63551 -3.29674,-6.97145 -5.21466,-12.49536 -3.83585,-11.04783 -8.06878,-26.90787 -12.30985,-45.76155 -8.48214,-37.70736 -17.09512,-87.53002 -24.12514,-137.53837 -7.03003,-50.00836 -12.48607,-100.27475 -14.72882,-138.85922 -1.12138,-19.29224 -1.42722,-35.70389 -0.78599,-47.38109 0.32061,-5.8386 0.90406,-10.51544 1.56837,-13.44775 0.14466,-0.63851 0.28368,-0.75923 0.46199,-1.18908 0.4605,-0.0692 0.61079,-0.1753 1.26607,-0.16123 3.00593,0.0646 7.6848,0.63017 13.42761,1.73116 11.48562,2.20197 27.3365,6.467 45.7848,12.22096 36.89659,11.50794 84.35245,28.95912 131.17597,47.87511 9.2799,3.74894 18.53748,7.55665 27.68616,11.38742 l 6.22801,-17.58582 c -8.82512,-3.68859 -17.53947,-8.5878 -26.48207,-12.20047 -47.2088,-19.07165 -94.98061,-36.65525 -132.69991,-48.41978 -18.85964,-5.88227 -35.16408,-10.31421 -47.95624,-12.76667 -6.39608,-1.22623 -11.88562,-1.9762 -16.73903,-2.08049 -1.21336,-0.0261 -2.39954,-0.066 -3.57807,-0.047 z"
         sodipodi:nodetypes="ssssssssssssssssccssssscssssssscssssccsssss" />
      <path
         style="baseline-shift:baseline;display:inline;overflow:visible;fill:#0044aa;fill-opacity:1;stroke:#0044aa;stroke-width:13.2292;stroke-dasharray:none;stroke-opacity:1;enable-background:accumulate;stop-color:#000000"
         d="m 539.36415,794.58196 c -58.08566,0 -105.38672,47.2991 -105.38672,105.38476 0,58.08567 47.30106,105.38678 105.38672,105.38678 58.08566,0 105.38672,-47.30111 105.38672,-105.38678 0,-58.08566 -47.30106,-105.38476 -105.38672,-105.38476 z m 0,19.84375 c 47.36128,0 85.54297,38.17974 85.54297,85.54101 0,47.36128 -38.18169,85.54297 -85.54297,85.54297 -47.36128,0 -85.54297,-38.18169 -85.54297,-85.54297 0,-47.36127 38.18169,-85.54101 85.54297,-85.54101 z"
         id="path4-93" />
      <path
         style="baseline-shift:baseline;display:inline;overflow:visible;fill:#0044aa;fill-opacity:1;stroke:#0044aa;stroke-width:13.2292;stroke-dasharray:none;stroke-opacity:1;enable-background:accumulate;stop-color:#000000"
         d="m 867.92079,794.58196 c -58.08566,0 -105.38672,47.2991 -105.38672,105.38476 0,58.08567 47.30106,105.38678 105.38672,105.38678 58.08566,0 105.38479,-47.30111 105.38479,-105.38678 0,-58.08566 -47.29913,-105.38476 -105.38479,-105.38476 z m 0,19.84375 c 47.36128,0 85.54102,38.17974 85.54102,85.54101 0,47.36128 -38.17974,85.54297 -85.54102,85.54297 -47.36127,0 -85.54297,-38.18169 -85.54297,-85.54297 0,-47.36127 38.1817,-85.54101 85.54297,-85.54101 z"
         id="path4-9" />
      <path
         style="baseline-shift:baseline;display:inline;overflow:visible;fill:#0044aa;fill-opacity:1;stroke:#0044aa;stroke-width:13.2292;stroke-linecap:round;stroke-linejoin:round;stroke-dasharray:none;stroke-opacity:1;enable-background:accumulate;stop-color:#000000"
         d="m 533.33876,427.44524 c -11.59687,-0.86623 -23.43772,3.81774 -31.14648,13.54492 L 419.28212,545.6093 c -5.95566,7.51502 -8.68486,17.09755 -7.58203,26.62305 l 12.43945,107.45703 c 1.10285,9.52525 5.94811,18.23203 13.46289,24.1875 l 63.47852,50.30469 c 15.56344,12.33397 38.47655,9.68258 50.81055,-5.88086 L 682.30946,583.7343 c 12.33414,-15.56363 9.68245,-38.47861 -5.88086,-50.8125 L 553.00282,435.10735 c -5.83632,-4.62527 -12.70594,-7.14237 -19.66406,-7.66211 z m -1.56641,19.67383 c 3.12361,0.24799 6.22161,1.41343 8.90625,3.54101 l 123.42383,97.81446 c 7.1586,5.67317 8.32963,15.77473 2.65625,22.93359 L 536.33876,735.97454 c -5.67304,7.15843 -15.77515,8.32734 -22.93359,2.65429 L 449.9286,688.32414 c -3.39585,-2.69121 -5.57965,-6.61268 -6.07812,-10.91796 L 431.41103,569.9511 c -0.49843,-4.30506 0.73208,-8.62106 3.42382,-12.01758 l 82.91016,-104.61914 c 3.54594,-4.47439 8.82133,-6.60863 14.02734,-6.19531 z"
         id="path1-9" />
      <path
         style="baseline-shift:baseline;display:inline;overflow:visible;fill:#0044aa;fill-opacity:1;stroke:#0044aa;stroke-width:13.2292;stroke-linecap:round;stroke-linejoin:round;stroke-dasharray:none;stroke-opacity:1;enable-background:accumulate;stop-color:#000000"
         d="m 429.45009,558.58782 a 9.9218998,9.9218998 0 0 0 -6.63477,3.69336 9.9218998,9.9218998 0 0 0 1.61328,13.9375 l 53.93555,42.74414 -46.82031,59.08007 a 9.9218998,9.9218998 0 0 0 1.61328,13.9375 9.9218998,9.9218998 0 0 0 13.93945,-1.61328 L 500.079,623.51164 a 9.922892,9.922892 0 0 0 -1.61329,-13.9375 l -61.71289,-48.90625 a 9.9218998,9.9218998 0 0 0 -7.30273,-2.08007 z"
         id="path2" />
      <path
         style="baseline-shift:baseline;display:inline;overflow:visible;fill:#0044aa;fill-opacity:1;stroke:#0044aa;stroke-width:13.2292;stroke-linecap:round;stroke-linejoin:round;stroke-dasharray:none;stroke-opacity:1;enable-background:accumulate;stop-color:#000000"
         d="m 757.16103,334.50774 c -16.74358,0.9823 -31.22136,13.68176 -33.73438,30.875 l -30.36719,207.77148 c -2.87203,19.64965 10.90741,38.14754 30.55664,41.01953 l 155.82813,22.77539 c 19.64951,2.87204 38.14955,-10.90712 41.02148,-30.55664 L 939.7704,474.30657 c 1.38676,-9.48797 -1.05437,-19.14807 -6.7832,-26.83789 l -64.62305,-86.75 c -5.72862,-7.68967 -14.28574,-12.79295 -23.77344,-14.17969 l -80.14257,-11.71485 c -2.45618,-0.359 -4.89517,-0.45673 -7.28711,-0.3164 z m 1.08007,19.79492 c 1.09055,-0.0574 2.20622,-0.009 3.33594,0.15625 l 80.14258,11.71484 c 4.28741,0.62666 8.14125,2.92482 10.73047,6.40039 l 64.62305,86.74805 c 2.5891,3.47536 3.68927,7.82694 3.0625,12.11524 L 900.829,603.52141 c -1.32105,9.0385 -9.47511,15.11408 -18.51368,13.79297 L 726.4872,594.53899 c -9.03798,-1.32102 -15.11403,-9.47731 -13.79297,-18.51563 l 30.36914,-207.77148 c 1.15587,-7.90809 7.54392,-13.54765 15.17773,-13.94922 z"
         id="path1-9-7" />
      <path
         style="baseline-shift:baseline;display:inline;overflow:visible;fill:#0044aa;fill-opacity:1;stroke:#0044aa;stroke-width:13.2292;stroke-linecap:round;stroke-linejoin:round;stroke-dasharray:none;stroke-opacity:1;enable-background:accumulate;stop-color:#000000"
         d="m 854.39735,354.60344 a 9.9218998,9.9218998 0 0 0 -11.25195,8.38281 l -12.33789,84.40625 a 9.922892,9.922892 0 0 0 8.38281,11.25391 l 77.91407,11.38672 a 9.9218998,9.9218998 0 0 0 11.2539,-8.38281 9.9218998,9.9218998 0 0 0 -8.38281,-11.25196 l -68.09766,-9.95312 10.90235,-74.58985 a 9.9218998,9.9218998 0 0 0 -8.38282,-11.25195 z"
         id="path2-5" />
      <g
         id="path1-5"
         style="fill:#0044aa;fill-opacity:1;stroke:#0044aa;stroke-width:13.2292;stroke-dasharray:none;stroke-opacity:1"
         transform="translate(-38.399519,-10.472727)">
        <path
           style="baseline-shift:baseline;display:inline;overflow:visible;fill:#0044aa;fill-opacity:1;stroke:#0044aa;stroke-width:13.2292;stroke-linecap:round;stroke-linejoin:round;stroke-dasharray:none;stroke-opacity:1;enable-background:accumulate;stop-color:#000000;stop-opacity:1"
           d="M 675.46727,912.41357 H 805.364 m 0,0 -48.29491,46.08043 m 48.29491,-46.08043 -47.29571,-50.334"
           id="path10" />
        <path
           style="baseline-shift:baseline;display:inline;overflow:visible;fill:#0044aa;fill-opacity:1;stroke:#0044aa;stroke-width:13.2292;stroke-linecap:round;stroke-linejoin:round;stroke-dasharray:none;stroke-opacity:1;enable-background:accumulate;stop-color:#000000;stop-opacity:1"
           d="m 758.37695,852.16211 a 9.921875,9.921875 0 0 0 -7.10351,2.6875 9.921875,9.921875 0 0 0 -0.43555,14.02344 l 31.58984,33.61914 H 675.4668 a 9.921875,9.921875 0 0 0 -9.92188,9.92187 9.921875,9.921875 0 0 0 9.92188,9.92188 h 105.12695 l -30.37305,28.98047 a 9.921875,9.921875 0 0 0 -0.33008,14.02734 9.921875,9.921875 0 0 0 14.02735,0.32812 l 48.24023,-46.02734 0.0547,-0.0527 a 9.921875,9.921875 0 0 0 0.0508,-0.11524 9.921875,9.921875 0 0 0 1.50391,-3.39844 9.921875,9.921875 0 0 0 1.5,-3.39453 9.921875,9.921875 0 0 0 -0.0293,-0.15429 9.921875,9.921875 0 0 0 0.0469,-0.11524 9.921875,9.921875 0 0 0 -1.38672,-3.34765 9.921875,9.921875 0 0 0 -0.004,-0.0117 9.921875,9.921875 0 0 0 -0.002,-0.004 9.921875,9.921875 0 0 0 -1.29883,-3.43164 l -0.0508,-0.0527 v -0.002 a 9.921875,9.921875 0 0 0 -0.002,0 l -47.24219,-50.27929 a 9.921875,9.921875 0 0 0 -6.92188,-3.12305 z"
           id="path11" />
      </g>
      <g
         id="path1-5-93"
         style="fill:#0044aa;fill-opacity:1;stroke:#0044aa;stroke-width:13.2292;stroke-dasharray:none;stroke-opacity:1"
         transform="translate(-38.399519,-10.472727)">
        <path
           style="baseline-shift:baseline;display:inline;overflow:visible;fill:#0044aa;fill-opacity:1;stroke:#0044aa;stroke-width:13.2292;stroke-linecap:round;stroke-linejoin:round;stroke-dasharray:none;stroke-opacity:1;enable-background:accumulate;stop-color:#000000;stop-opacity:1"
           d="m 680.59235,695.84286 h 129.89673 m 0,0 -48.29491,46.08043 m 48.29491,-46.08043 -47.29571,-50.334"
           id="path8" />
        <path
           style="baseline-shift:baseline;display:inline;overflow:visible;fill:#0044aa;fill-opacity:1;stroke:#0044aa;stroke-width:13.2292;stroke-linecap:round;stroke-linejoin:round;stroke-dasharray:none;stroke-opacity:1;enable-background:accumulate;stop-color:#000000;stop-opacity:1"
           d="m 763.50195,635.5918 a 9.9218998,9.9218998 0 0 0 -7.10351,2.68554 9.9218998,9.9218998 0 0 0 -0.43555,14.02539 l 31.58984,33.61914 H 680.5918 a 9.9218998,9.9218998 0 0 0 -9.92188,9.92188 9.9218998,9.9218998 0 0 0 9.92188,9.92187 h 105.125 l -30.3711,28.97852 a 9.9218998,9.9218998 0 0 0 -0.33008,14.0293 9.9218998,9.9218998 0 0 0 14.02735,0.32812 l 48.24023,-46.02734 0.0547,-0.0527 a 9.9218998,9.9218998 0 0 0 0.0508,-0.11328 9.9218998,9.9218998 0 0 0 1.51563,-3.42773 9.9218998,9.9218998 0 0 0 0.0215,-0.0488 9.9218998,9.9218998 0 0 0 1.4668,-3.31836 9.9218998,9.9218998 0 0 0 -0.0293,-0.1543 9.9218998,9.9218998 0 0 0 0.0469,-0.11523 9.9218998,9.9218998 0 0 0 -1.39454,-3.36719 9.9218998,9.9218998 0 0 0 -1.29492,-3.42773 l -0.0527,-0.0547 -47.24414,-50.2793 a 9.9218998,9.9218998 0 0 0 -6.92188,-3.12304 z"
           id="path9" />
      </g>
      <g
         id="path1-5-9"
         style="fill:#0044aa;fill-opacity:1;stroke:#0044aa;stroke-width:13.2292;stroke-dasharray:none;stroke-opacity:1"
         transform="translate(-38.399519,-10.472727)">
        <path
           style="baseline-shift:baseline;display:inline;overflow:visible;fill:#0044aa;fill-opacity:1;stroke:#0044aa;stroke-width:13.2292;stroke-linecap:round;stroke-linejoin:round;stroke-dasharray:none;stroke-opacity:1;enable-background:accumulate;stop-color:#000000;stop-opacity:1"
           d="m 340.42962,912.79202 h 129.89673 m 0,0 -48.29491,46.08043 m 48.29491,-46.08043 -47.29571,-50.334"
           id="path6" />
        <path
           style="baseline-shift:baseline;display:inline;overflow:visible;fill:#0044aa;fill-opacity:1;stroke:#0044aa;stroke-width:13.2292;stroke-linecap:round;stroke-linejoin:round;stroke-dasharray:none;stroke-opacity:1;enable-background:accumulate;stop-color:#000000;stop-opacity:1"
           d="m 423.33984,852.54102 a 9.9218998,9.9218998 0 0 0 -7.10351,2.68554 9.9218998,9.9218998 0 0 0 -0.43555,14.02539 l 31.58984,33.61914 H 340.42969 a 9.9218998,9.9218998 0 0 0 -9.92188,9.92188 9.9218998,9.9218998 0 0 0 9.92188,9.92187 h 105.12304 l -30.37109,28.97852 a 9.9218998,9.9218998 0 0 0 -0.32812,14.0293 9.9218998,9.9218998 0 0 0 14.02734,0.32812 l 48.24023,-46.02734 0.0547,-0.0527 a 9.9218998,9.9218998 0 0 0 0.0508,-0.11523 9.9218998,9.9218998 0 0 0 1.50391,-3.39844 9.9218998,9.9218998 0 0 0 1.5,-3.39453 9.9218998,9.9218998 0 0 0 -0.0293,-0.1543 9.9218998,9.9218998 0 0 0 0.0469,-0.11523 9.9218998,9.9218998 0 0 0 -1.39649,-3.36914 9.9218998,9.9218998 0 0 0 -1.29492,-3.42578 l -0.0527,-0.0547 -47.24219,-50.2793 a 9.9218998,9.9218998 0 0 0 -6.92188,-3.12304 z"
           id="path7" />
      </g>
      <path
         style="baseline-shift:baseline;display:inline;overflow:visible;fill:#0044aa;fill-opacity:1;stroke:#0044aa;stroke-width:13.2292;stroke-dasharray:none;stroke-opacity:1;enable-background:accumulate;stop-color:#000000"
         d="m 163.50868,549.17766 v 229.29883 l 0.0293,-0.7832 c 0,0 -2.8236,33.55911 13.91992,67.33984 16.74353,33.78073 54.66819,67.53311 128.95703,67.23047 l -0.0801,-19.83789 C 237.8063,892.70488 209.25754,864.52299 195.23132,836.22454 181.2051,807.92608 183.3153,779.26164 183.3153,779.26164 l 0.0312,-0.39257 V 549.17766 Z"
         id="path4" />
      <path
         id="circle5"
         style="baseline-shift:baseline;display:inline;overflow:visible;fill:#0044aa;fill-opacity:1;stroke:#0044aa;stroke-width:13.2292;stroke-dasharray:none;stroke-opacity:1;enable-background:accumulate;stop-color:#000000"
         d="m 943.05908,611.47313 -6.99304,20.83213 c 12.52051,14.87172 17.39583,29.66913 17.39583,50.70266 0,47.36128 -38.17975,85.54258 -85.54103,85.54258 -47.36127,0 -85.54309,-38.1813 -85.54309,-85.54258 0,-14.1899 1.65733,-16.93531 7.73216,-28.69693 L 770.8136,649.1616 c -5.33017,12.59068 -8.2796,19.342 -8.2796,33.84632 0,58.08566 47.30118,105.38633 105.38684,105.38633 58.08566,0 105.38474,-47.30067 105.38474,-105.38633 0,-32.17216 -7.43001,-52.18482 -30.2465,-71.53479 z"
         sodipodi:nodetypes="ccsssccsssc" />
      <path
         style="baseline-shift:baseline;display:inline;overflow:visible;fill:#0044aa;fill-opacity:1;stroke:#0044aa;stroke-width:13.2292;stroke-dasharray:none;stroke-opacity:1;enable-background:accumulate;stop-color:#000000"
         d="m 421.08837,185.46453 -11.50742,16.1018 c 0,0 66.90473,30.88315 132.4375,56.61524 32.76638,12.86604 65.08427,24.45096 89.26758,30.36132 12.09165,2.95519 21.85451,4.71934 30.45703,3.83204 4.30126,-0.44366 9.00898,-1.4815 12.85742,-5.74805 3.84844,-4.26655 4.28077,-10.91341 2.87695,-15.50977 l -18.97851,5.79688 c 0.19039,0.62338 0.0288,-2.0943 1.36718,-3.57813 1.33842,-1.48382 1.6189,-0.88467 -0.16015,-0.70117 -3.55811,0.367 -12.56254,-0.64497 -23.70899,-3.36914 C 613.70407,263.8172 581.66069,252.42923 549.2704,239.71086 484.48983,214.27413 421.08837,185.46453 421.08837,185.46453 Z"
         id="path5"
         sodipodi:nodetypes="ccssssccssssc" />
    </g>
  </g>
</svg>
